HIERARCHY
ROOT joint_Root
{
	OFFSET 0.0 0.0 0.0
	CHANNELS 6 Xposition Yposition Zposition Zrotation Xrotation Yrotation 
	JOINT Hips
	{
		OFFSET 4.5925 91.4895 -427.239
		CHANNELS 6 Xposition Yposition Zposition Zrotation Xrotation Yrotation 
		JOINT Spine
		{
			OFFSET 15.7357 0.0 0.0
			CHANNELS 6 Xposition Yposition Zposition Zrotation Xrotation Yrotation 
			JOINT Chest
			{
				OFFSET 8.98455 -0.406207 0.0
				CHANNELS 6 Xposition Yposition Zposition Zrotation Xrotation Yrotation 
				JOINT Neck
				{
					OFFSET 16.3773 0.0 0.0
					CHANNELS 6 Xposition Yposition Zposition Zrotation Xrotation Yrotation 
					JOINT Head
					{
						OFFSET 6.45672 0.0 0.0
						CHANNELS 6 Xposition Yposition Zposition Zrotation Xrotation Yrotation 
						End Site
						{
							OFFSET 0.0 0.0 0.0
						}
					}
				}
				JOINT Shoulder_L
				{
					OFFSET 12.9942 -0.242716 4.98039
					CHANNELS 6 Xposition Yposition Zposition Zrotation Xrotation Yrotation 
					JOINT UpperArm_L
					{
						OFFSET 5.34809 0.0 0.0
						CHANNELS 6 Xposition Yposition Zposition Zrotation Xrotation Yrotation 
						JOINT LowerArm_L
						{
							OFFSET 24.3286 1.87007e-05 0.0
							CHANNELS 6 Xposition Yposition Zposition Zrotation Xrotation Yrotation 
							JOINT Hand_L
							{
								OFFSET 22.2916 0.0 0.0
								CHANNELS 6 Xposition Yposition Zposition Zrotation Xrotation Yrotation 
								End Site
								{
									OFFSET 0.0 0.0 0.0
								}
							}
						}
					}
				}
				JOINT Shoulder_R
				{
					OFFSET 12.9945 -0.242716 -4.98039
					CHANNELS 6 Xposition Yposition Zposition Zrotation Xrotation Yrotation 
					JOINT UpperArm_R
					{
						OFFSET -5.34813 0.0 0.0
						CHANNELS 6 Xposition Yposition Zposition Zrotation Xrotation Yrotation 
						JOINT LowerArm_R
						{
							OFFSET -24.3289 0.000322201 0.0
							CHANNELS 6 Xposition Yposition Zposition Zrotation Xrotation Yrotation 
							JOINT Hand_R
							{
								OFFSET -22.2915 -0.000108084 0.0
								CHANNELS 6 Xposition Yposition Zposition Zrotation Xrotation Yrotation 
								End Site
								{
									OFFSET 0.0 0.0 0.0
								}
							}
						}
					}
				}
			}
		}
		JOINT UpperLeg_L
		{
			OFFSET -2.19248 -6.46944 0.0
			CHANNELS 6 Xposition Yposition Zposition Zrotation Xrotation Yrotation 
			JOINT LowerLeg_L
			{
				OFFSET 39.0811 0.0 -1.23785e-05
				CHANNELS 6 Xposition Yposition Zposition Zrotation Xrotation Yrotation 
				JOINT Foot_L
				{
					OFFSET 40.9854 0.0 -1.26872e-05
					CHANNELS 6 Xposition Yposition Zposition Zrotation Xrotation Yrotation 
					JOINT Toes_L
					{
						OFFSET 11.7543 0.0 0.0
						CHANNELS 6 Xposition Yposition Zposition Zrotation Xrotation Yrotation 
						End Site
						{
							OFFSET 0.0 0.0 0.0
						}
					}
				}
			}
		}
		JOINT UpperLeg_R
		{
			OFFSET -2.19251 6.46944 0.0
			CHANNELS 6 Xposition Yposition Zposition Zrotation Xrotation Yrotation 
			JOINT LowerLeg_R
			{
				OFFSET -39.0811 -0.00228153 -0.0401928
				CHANNELS 6 Xposition Yposition Zposition Zrotation Xrotation Yrotation 
				JOINT Foot_R
				{
					OFFSET -40.9854 0.0 0.0
					CHANNELS 6 Xposition Yposition Zposition Zrotation Xrotation Yrotation 
					JOINT Toes_R
					{
						OFFSET -11.7543 0.0 0.0
						CHANNELS 6 Xposition Yposition Zposition Zrotation Xrotation Yrotation 
						End Site
						{
							OFFSET 0.0 0.0 0.0
						}
					}
				}
			}
		}
	}
}
MOTION
Frames:	7
Frame Time:	0.0333333
0.000000 0.000000 0.000000 0.000000 0.000000 -0.000000 -64.050200 89.733000 188.347000 72.837400 76.346900 14.843400 15.735700 0.000005 -0.000001 61.692000 83.765100 -59.791500 8.984550 -0.406207 -0.000000 3.330330 -5.980280 3.973610 16.377300 -0.000001 -0.000001 -3.123040 1.037610 1.342040 6.456720 -0.000001 -0.000000 -13.696200 3.895910 7.173810 12.994200 -0.242716 4.980390 -90.725000 3.018330 -76.486300 5.348090 -0.000007 -0.000001 -47.988800 29.017100 -29.404600 24.328600 0.000019 0.000005 14.905200 13.707300 -48.323100 22.291600 -0.000001 0.000005 11.643700 5.331690 -0.834786 12.994500 -0.242716 -4.980390 87.535700 11.985500 -78.291800 -5.348130 -0.000001 -0.000004 -64.556600 22.128200 -0.794318 -24.328900 0.000322 -0.000009 2.040220 6.427100 -17.661700 -22.291500 -0.000108 -0.000004 13.536600 5.369370 -1.967170 -2.192480 -6.469440 -0.000000 -174.649000 -18.320300 7.310990 39.081100 -0.000007 -0.000012 -0.018832 0.048498 21.221700 40.985400 -0.000006 -0.000013 4.541150 7.441770 -74.215000 11.754300 -0.000000 0.000003 -0.122548 -0.221708 -20.825300 -2.192510 6.469440 -0.000001 -169.652000 17.073300 151.192000 -39.081100 -0.002282 -0.040193 0.043020 -0.076468 27.444900 -40.985400 0.000008 0.000006 6.673330 10.865500 -58.748000 -11.754300 -0.000006 -0.000006 -0.015020 -0.137942 -22.201100
0.000000 0.000000 0.000000 0.000000 0.000000 -0.000000 -60.743800 89.021700 189.305000 71.066200 78.184500 16.504600 15.735700 0.000005 -0.000001 58.901200 83.895600 -56.939400 8.984550 -0.406207 -0.000000 2.816170 -6.385020 4.079700 16.377300 -0.000001 -0.000001 -2.442560 0.851291 1.283410 6.456720 -0.000001 -0.000000 -13.062000 3.684350 7.250390 12.994200 -0.242716 4.980390 -90.829700 3.375850 -76.183400 5.348090 -0.000007 -0.000001 -48.844600 29.819800 -28.004800 24.328600 0.000019 0.000005 14.701000 14.277000 -46.773100 22.291600 -0.000001 0.000005 11.738500 5.331410 -0.826785 12.994500 -0.242716 -4.980390 87.374900 12.554900 -78.090100 -5.348130 -0.000001 -0.000004 -63.880700 23.628700 -1.648900 -24.328900 0.000322 -0.000009 2.008360 6.704270 -16.727300 -22.291500 -0.000108 -0.000004 13.502400 5.369680 -1.976770 -2.192480 -6.469440 -0.000000 -173.532000 -17.180400 8.785790 39.081100 -0.000007 -0.000012 -0.019008 0.045742 22.565700 40.985400 -0.000006 -0.000013 3.815120 8.968070 -74.654000 11.754300 -0.000000 0.000003 -0.019454 -0.164258 -23.286800 -2.192510 6.469440 -0.000001 -171.347000 13.987100 150.386000 -39.081100 -0.002282 -0.040193 -0.053957 0.089652 32.563000 -40.985400 0.000008 0.000006 5.918170 7.843190 -56.720800 -11.754300 -0.000006 -0.000006 -0.012789 -0.123411 -21.605200
0.000000 0.000000 0.000000 0.000000 0.000000 -0.000000 -57.141400 88.401200 190.382000 65.209400 80.719600 22.750000 15.735700 0.000005 -0.000001 55.793200 83.875500 -53.656000 8.984550 -0.406207 -0.000000 2.515130 -6.978560 4.427650 16.377300 -0.000001 -0.000001 -2.054030 0.422835 1.313390 6.456720 -0.000001 -0.000000 -12.128700 3.383100 7.351360 12.994200 -0.242716 4.980390 -90.944000 3.819860 -76.107900 5.348090 -0.000007 -0.000001 -51.689600 29.813900 -25.409200 24.328600 0.000019 0.000005 14.505400 15.540000 -44.000600 22.291600 -0.000001 0.000005 11.951700 5.324150 -0.616833 12.994500 -0.242716 -4.980390 87.088200 13.205600 -77.447500 -5.348130 -0.000001 -0.000004 -63.078500 24.910000 -2.265950 -24.328900 0.000322 -0.000009 2.053620 7.179930 -16.015800 -22.291500 -0.000108 -0.000004 13.344900 5.368510 -1.940600 -2.192480 -6.469440 -0.000000 -172.285000 -14.192300 9.683650 39.081100 -0.000007 -0.000012 -0.013990 0.029271 25.545200 40.985400 -0.000006 -0.000013 2.951080 9.498070 -74.136200 11.754300 -0.000000 0.000003 -0.040602 -0.262514 -27.362200 -2.192510 6.469440 -0.000001 -172.577000 12.467800 150.697000 -39.081100 -0.002282 -0.040193 -0.189395 0.243592 38.343600 -40.985400 0.000008 0.000006 4.816300 3.243630 -61.965300 -11.754300 -0.000006 -0.000006 -0.006711 -0.077162 -19.714100
0.000000 0.000000 0.000000 0.000000 0.000000 -0.000000 -53.344300 87.953500 191.444000 55.125900 83.158100 33.961100 15.735700 0.000005 -0.000001 54.839100 83.658800 -52.544300 8.984550 -0.406207 -0.000000 2.775560 -7.396880 4.769340 16.377300 -0.000001 -0.000001 -1.915880 0.058037 1.479430 6.456720 -0.000001 -0.000000 -11.419500 3.005860 7.559970 12.994200 -0.242716 4.980390 -90.965100 3.904310 -76.103800 5.348090 -0.000007 -0.000001 -56.661800 28.517400 -22.016400 24.328600 0.000019 0.000005 13.659400 17.095100 -39.581600 22.291600 -0.000001 0.000005 13.066400 5.302290 0.005318 12.994500 -0.242716 -4.980390 87.037800 13.278500 -77.303600 -5.348130 -0.000001 -0.000004 -63.059300 24.835700 -2.640290 -24.328900 0.000322 -0.000009 2.083160 7.494020 -15.591000 -22.291500 -0.000108 -0.000004 13.422200 5.366940 -1.892210 -2.192480 -6.469440 -0.000000 -171.026000 -11.392800 9.602670 39.081100 -0.000007 -0.000012 -0.000197 0.000329 31.053200 40.985400 -0.000006 -0.000013 2.129430 9.781680 -71.313800 11.754300 -0.000000 0.000003 -0.093721 -0.428717 -34.440600 -2.192510 6.469440 -0.000001 -172.991000 12.830600 152.844000 -39.081100 -0.002282 -0.040193 -0.150477 0.169369 42.232500 -40.985400 0.000008 0.000006 6.437460 0.190884 -66.923400 -11.754300 -0.000006 -0.000006 -0.002824 -0.038595 -18.142600
0.000000 0.000000 0.000000 0.000000 0.000000 -0.000000 -49.556400 87.764300 192.453000 37.924400 85.072500 52.593700 15.735700 0.000005 -0.000001 56.590100 83.597800 -54.273200 8.984550 -0.406207 -0.000000 3.092150 -7.137740 4.826380 16.377300 -0.000001 -0.000001 -1.463880 -0.639775 1.871510 6.456720 -0.000001 -0.000000 -11.136800 2.101720 8.424320 12.994200 -0.242716 4.980390 -90.936200 3.775510 -76.062400 5.348090 -0.000007 -0.000001 -61.912400 26.720900 -19.061900 24.328600 0.000019 0.000005 11.350800 17.892300 -33.158700 22.291600 -0.000001 0.000005 14.683600 5.279980 0.623123 12.994500 -0.242716 -4.980390 87.002300 13.251000 -77.131200 -5.348130 -0.000001 -0.000004 -63.449900 24.309200 -2.475340 -24.328900 0.000322 -0.000009 2.057620 7.435580 -15.523400 -22.291500 -0.000108 -0.000004 13.558800 5.364130 -1.805960 -2.192480 -6.469440 -0.000000 -169.698000 -9.413800 7.946070 39.081100 -0.000007 -0.000012 0.031730 -0.039559 38.731300 40.985400 -0.000006 -0.000013 1.959510 10.248200 -65.485100 11.754300 -0.000000 0.000003 -0.159814 -0.573768 -40.906500 -2.192510 6.469440 -0.000001 -173.534000 15.649500 156.589000 -39.081100 -0.002282 -0.040193 -0.188847 0.200533 43.771900 -40.985400 0.000008 0.000006 6.353960 -0.232180 -70.895800 -11.754300 -0.000006 -0.000006 -0.001004 -0.015458 -17.201800
0.000000 0.000000 0.000000 0.000000 0.000000 -0.000000 -46.007800 87.771500 193.367000 16.956900 85.959200 74.967200 15.735700 0.000005 -0.000001 60.901400 83.744700 -58.609900 8.984550 -0.406207 -0.000000 3.309600 -6.166420 4.759830 16.377300 -0.000001 -0.000001 -1.138490 -1.324550 2.286520 6.456720 -0.000001 -0.000000 -10.516300 0.780405 9.914200 12.994200 -0.242716 4.980390 -90.979100 3.874750 -75.807300 5.348090 -0.000007 -0.000001 -66.229800 24.718300 -16.379200 24.328600 0.000019 0.000005 9.002000 18.535700 -26.488300 22.291600 -0.000001 0.000005 15.893500 5.228870 1.979990 12.994500 -0.242716 -4.980390 87.071600 13.177000 -77.352200 -5.348130 -0.000001 -0.000004 -63.624400 24.290100 -2.182080 -24.328900 0.000322 -0.000009 1.933150 6.930740 -15.635000 -22.291500 -0.000108 -0.000004 13.525700 5.365810 -1.857560 -2.192480 -6.469440 -0.000000 -168.640000 -7.704800 4.583650 39.081100 -0.000007 -0.000012 0.077299 -0.070156 47.772200 40.985400 -0.000006 -0.000013 1.184700 10.349400 -57.988900 11.754300 -0.000000 0.000003 -0.116567 -0.483940 -36.863700 -2.192510 6.469440 -0.000001 -174.186000 18.099000 161.012000 -39.081100 -0.002282 -0.040193 -0.107647 0.115976 43.722400 -40.985400 0.000008 0.000006 7.239940 -0.173351 -73.967500 -11.754300 -0.000006 -0.000006 -0.000512 -0.008210 -16.907300
0.000000 0.000000 0.000000 0.000000 0.000000 -0.000000 -42.867500 87.824000 194.059000 -1.665420 86.301000 94.760000 15.735700 0.000005 -0.000001 67.302300 83.961000 -65.075200 8.984550 -0.406207 -0.000000 3.482810 -4.738190 4.595500 16.377300 -0.000001 -0.000001 -1.009060 -1.990640 2.883610 6.456720 -0.000001 -0.000000 -9.954860 -0.445273 11.094800 12.994200 -0.242716 4.980390 -91.070500 4.178200 -75.615700 5.348090 -0.000007 -0.000001 -69.212800 22.977900 -13.554500 24.328600 0.000019 0.000005 7.468180 19.729400 -21.222300 22.291600 -0.000001 0.000005 16.586000 5.163710 3.612660 12.994500 -0.242716 -4.980390 87.204200 12.983800 -77.737200 -5.348130 -0.000001 -0.000004 -63.330700 25.054900 -2.488060 -24.328900 0.000322 -0.000009 1.882980 6.741610 -15.653300 -22.291500 -0.000108 -0.000004 13.169900 5.372590 -2.066750 -2.192480 -6.469440 -0.000000 -168.239000 -6.039190 -0.256653 39.081100 -0.000007 -0.000012 0.129678 -0.083812 57.123700 40.985400 -0.000006 -0.000013 -2.276250 8.107650 -49.586000 11.754300 -0.000000 0.000003 -0.021789 -0.177017 -23.812600 -2.192510 6.469440 -0.000001 -175.040000 19.723000 165.253000 -39.081100 -0.002282 -0.040193 0.005058 -0.001922 42.929600 -40.985400 0.000008 0.000006 7.996100 -0.329250 -76.248700 -11.754300 -0.000006 -0.000006 -0.000246 -0.004044 -16.738100
